# xmcd
#
# Track frame offsets: 
#        182
#        18600
#        40887
#        60962
#
# Disc length: 1021 seconds
#
# Revision: 2
# Processed by: cddbd v1.5.2PL0 Copyright (c) Steve Scherf et al.
# Submitted via: ExactAudioCopyFreeDBPlugin 1.0
#
DISCID=2903fb04
DTITLE=The Neville Brothers - A Taste Of The Family Groove (1992 Promo
DTITLE=)
DYEAR=1992
DGENRE=Folk
TTITLE0=Fly Like An Eagle (7" Remix)
TTITLE1=I Can See It In Your Eyes
TTITLE2=Line Of Fire
TTITLE3=Excerpts from their album "Family Groove": a) True Love  b) On
TTITLE3=e More Day  c) Famliy Groove
EXTD=
EXTT0=
EXTT1=
EXTT2=
EXTT3=
PLAYORDER=
